<svg width="140" height="140" viewBox="0 0 140 140" fill="none" xmlns="http://www.w3.org/2000/svg">
<path d="M20.5173 48.2083H120.055V120.622H20.5173L20.5173 48.2083Z" fill="#F5F5F5"/>
<path d="M111.035 52.4327H127.931V115.595H111.035L111.035 52.4327Z" fill="#F0F0F0"/>
<path d="M28.9651 114.47H12.0686V54.6437H28.9651V114.47Z" fill="#F0F0F0"/>
<path d="M106.207 47.0013H132.758V53.0362C132.758 55.7022 130.597 57.863 127.931 57.863H111.035C108.368 57.863 106.207 55.7022 106.207 53.0362L106.207 47.0013Z" fill="#D4D7D9"/>
<path d="M111.035 110.967H127.931C130.597 110.967 132.758 113.128 132.758 115.794V121.829H106.207V115.794C106.207 113.128 108.368 110.967 111.035 110.967Z" fill="#D4D7D9"/>
<path d="M28.965 57.863H12.0685C9.4025 57.863 7.2417 55.7022 7.2417 53.0362V47.0013H33.7929V53.0362C33.7929 55.7022 31.6321 57.863 28.965 57.863Z" fill="#D4D7D9"/>
<path d="M33.7929 121.829H7.2417V115.794C7.2417 113.128 9.4025 110.967 12.0685 110.967H28.965C31.6321 110.967 33.7929 113.128 33.7929 115.794V121.829Z" fill="#D4D7D9"/>
<path d="M4.82788 35.4155H137.586V45.7944C137.586 47.1274 136.505 48.2083 135.172 48.2083H7.24182C5.90881 48.2083 4.82788 47.1274 4.82788 45.7944V35.4155Z" fill="#005EEE"/>
<path d="M68.847 109.627C83.2446 109.627 94.9162 98.1445 94.9162 83.9801C94.9162 69.8158 83.2446 58.3334 68.847 58.3334C54.4494 58.3334 42.7778 69.8158 42.7778 83.9801C42.7778 98.1445 54.4494 109.627 68.847 109.627Z" fill="#FFD300"/>
<path d="M68.8469 109.628C83.2449 109.628 94.9166 98.1454 94.9166 83.9809V83.9281C94.9164 83.9238 94.9164 83.9201 94.9164 83.9159V83.894L94.9163 83.8836V83.862C94.9161 83.8582 94.9161 83.8541 94.9161 83.8503V83.8404C94.9159 83.8361 94.9159 83.8325 94.9159 83.8283V83.8189C94.9161 83.8144 94.9161 83.8103 94.9161 83.806L94.9159 83.7967C94.9159 83.7925 94.9159 83.7878 94.9157 83.7835V83.7753C94.9156 83.7701 94.9156 83.7651 94.9156 83.76L94.9154 83.7535C94.9154 83.7459 94.9152 83.7392 94.9152 83.7317V83.7286C94.9152 83.7224 94.915 83.7164 94.915 83.7102V83.7019L94.9149 83.6882V83.68L94.9147 83.6664L94.9145 83.6578L94.9143 83.6446C94.9142 83.642 94.9142 83.6381 94.9142 83.6355L94.914 83.6235L94.9138 83.6135L94.9137 83.6011L94.9135 83.5919C94.9135 83.5876 94.9133 83.5836 94.9133 83.5795C94.9133 83.5761 94.9133 83.5737 94.9131 83.5702C94.9131 83.5659 94.913 83.5615 94.913 83.5572L94.9128 83.5484L94.9126 83.5347L94.9124 83.5268L94.9121 83.5072L94.9119 83.5053L94.9116 83.4833L94.9114 83.4778L94.911 83.4615L94.9109 83.4534C94.9109 83.4491 94.9107 83.4443 94.9107 83.44L94.9105 83.4306L94.9103 83.4182L94.9102 83.4089C94.91 83.4047 94.91 83.4007 94.91 83.3964C94.9098 83.393 94.9098 83.3901 94.9098 83.3866L94.9095 83.3749C94.9095 83.3715 94.9093 83.3686 94.9093 83.3652L94.9091 83.353L94.9089 83.3435L94.9086 83.3303L94.9084 83.3222C94.9082 83.3176 94.9082 83.3123 94.9079 83.3076L94.9077 83.3004L94.9072 83.2849L94.907 83.2786C94.9068 83.2724 94.9065 83.2655 94.9065 83.2594L94.9063 83.2533C94.9061 83.2472 94.9058 83.2413 94.9058 83.2351L94.9056 83.2288C94.9054 83.2236 94.9054 83.2187 94.9051 83.2135L94.9049 83.2058L94.9046 83.1919L94.9042 83.1834L94.9039 83.1704L94.9035 83.1615C94.9034 83.1572 94.9034 83.1527 94.903 83.1484L94.9028 83.1396C94.9027 83.1354 94.9027 83.1314 94.9023 83.1273L94.902 83.1175L94.9016 83.1058L94.9013 83.0959C94.9011 83.0921 94.9011 83.088 94.9007 83.0842L94.9004 83.0744C94.9002 83.0697 94.9002 83.0655 94.8999 83.0608L94.8997 83.0533L94.899 83.0366L94.8988 83.0314C94.8985 83.0239 94.8983 83.0172 94.8979 83.0096L94.8978 83.0069L94.8969 82.988L94.8967 82.981C94.8965 82.9763 94.8962 82.9713 94.8962 82.9667L94.8958 82.9581L94.8953 82.9452L94.895 82.9358C94.8948 82.9315 94.8946 82.9277 94.8944 82.9236L94.8939 82.9141L94.8934 82.902C94.8932 82.8985 94.8931 82.8956 94.8929 82.8922L94.8924 82.8801L94.892 82.871C94.8918 82.8669 94.8917 82.8621 94.8915 82.8578L94.8911 82.8496L94.8904 82.8345L94.8901 82.8284L94.8894 82.8116L94.8892 82.8065L94.8871 82.7628L94.8869 82.7596C94.8868 82.7536 94.8864 82.747 94.8861 82.741L94.8857 82.7357C94.8855 82.7306 94.8852 82.7249 94.8848 82.7197L94.8845 82.7123L94.8838 82.6979L94.8834 82.6905C94.8831 82.6854 94.8829 82.6814 94.8826 82.6763L94.8822 82.6689L94.8814 82.6543L94.881 82.6467C94.8808 82.6426 94.8805 82.6373 94.8803 82.6332C94.8801 82.6306 94.88 82.6275 94.8798 82.6249L94.8789 82.6107L94.8786 82.6036C94.8782 82.5985 94.878 82.5933 94.8777 82.5882L94.8773 82.582C94.8772 82.5763 94.8768 82.5705 94.8765 82.565L94.8763 82.5604L94.8751 82.5387L94.8749 82.5358L94.8737 82.5169L94.8733 82.5111C94.8731 82.5059 94.8728 82.5006 94.8725 82.4954L94.8721 82.4879L94.8712 82.4741L94.8707 82.4654C94.8705 82.4613 94.8702 82.4571 94.8698 82.4528C94.8697 82.4503 94.8695 82.446 94.8693 82.4434L94.8686 82.431L94.8681 82.4224L94.8672 82.4096L94.8667 82.4005C94.8665 82.3963 94.8662 82.392 94.8658 82.3877L94.8653 82.3792C94.8649 82.375 94.8648 82.3704 94.8644 82.3661L94.8639 82.3573C94.8637 82.3527 94.8634 82.3476 94.863 82.3429L94.8627 82.3364L94.8615 82.3185L94.8611 82.3146L94.8597 82.2926L94.8595 82.2923L94.8581 82.2715L94.8578 82.2653L94.8566 82.2497L94.856 82.2431L94.8552 82.2284L94.8546 82.2206L94.8536 82.2069L94.8531 82.1988C94.8529 82.1942 94.8526 82.1902 94.8522 82.1856L94.8517 82.177L94.8508 82.1634L94.8503 82.1555L94.8492 82.142L94.8487 82.1341L94.8477 82.1195L94.8471 82.1126C94.8468 82.1071 94.8463 82.1018 94.8459 82.0961L94.8454 82.0911C94.8443 82.0767 94.8433 82.0618 94.8423 82.0475L94.8421 82.046C94.8416 82.0394 94.841 82.0324 94.8405 82.0259L94.8402 82.0219L94.8389 82.0046L94.8384 81.9986L94.8372 81.9829L94.8367 81.9769C94.8361 81.9718 94.8358 81.9665 94.8354 81.9613L94.8349 81.9546L94.8337 81.94L94.8332 81.9328C94.8326 81.9276 94.8323 81.9235 94.832 81.9184L94.8313 81.911C94.8309 81.9058 94.8304 81.9008 94.83 81.8957L94.8295 81.8899C94.829 81.8844 94.8286 81.8792 94.8281 81.8735L94.8276 81.868L94.8262 81.8492L94.826 81.8467C94.8253 81.8394 94.8248 81.8323 94.8243 81.8249L94.8241 81.8239C94.8236 81.817 94.8229 81.8102 94.8223 81.8033L94.822 81.7987L94.8206 81.7825L94.8199 81.7748C94.8194 81.7701 94.819 81.7652 94.8187 81.7605L94.818 81.7533L94.8168 81.7396L94.8159 81.7315L94.8147 81.7178L94.814 81.7102C94.8134 81.7056 94.8131 81.7006 94.8127 81.6961L94.812 81.6889L94.8107 81.6741L94.8101 81.6674L94.8087 81.653L94.808 81.6456C94.8075 81.6401 94.8072 81.6353 94.8066 81.6298L94.8061 81.6245C94.8047 81.6103 94.8033 81.5955 94.8021 81.5812L94.8019 81.5795C94.8014 81.573 94.8007 81.5665 94.8002 81.5599L94.7997 81.5543C94.7991 81.5488 94.7986 81.544 94.7983 81.5383L94.7977 81.5323C94.7972 81.5271 94.7967 81.5218 94.7962 81.5167L94.7955 81.5098L94.7941 81.4959C94.7939 81.4933 94.7935 81.4902 94.7932 81.4876L94.792 81.4747L94.7911 81.466L94.7897 81.4526L94.789 81.4454C94.7885 81.4404 94.788 81.4358 94.7876 81.4306L94.7869 81.4237L94.7852 81.4076L94.7846 81.4026C94.7841 81.3966 94.7834 81.3902 94.7827 81.3842L94.7825 81.3811C94.781 81.3664 94.7794 81.3523 94.778 81.3375L94.7778 81.3363L94.7757 81.3162L94.7752 81.3109C94.7747 81.3059 94.7742 81.3004 94.7736 81.2954L94.7728 81.2879L94.7714 81.2738L94.7705 81.2662L94.7691 81.2529L94.7682 81.2446L94.7668 81.2312L94.766 81.2231L94.7646 81.2099L94.7637 81.202C94.7632 81.1974 94.7625 81.1926 94.7621 81.1879L94.7612 81.1807C94.7607 81.1761 94.76 81.1706 94.7597 81.1659L94.7588 81.1594L94.7571 81.1436L94.7564 81.138L94.7539 81.1168L94.7537 81.1144L94.7516 81.0955L94.7509 81.0897L94.7492 81.0742L94.7483 81.0674C94.7478 81.0627 94.7471 81.0574 94.7466 81.0528L94.7457 81.0462L94.744 81.0315L94.7431 81.0244L94.7413 81.0103L94.7405 81.0028C94.74 80.9982 94.7394 80.9933 94.7389 80.9889L94.738 80.9817C94.7375 80.9767 94.737 80.9722 94.7363 80.9672L94.7354 80.9605L94.7337 80.9465L94.7328 80.9387L94.731 80.9243L94.7302 80.9179C94.7295 80.9119 94.7288 80.9054 94.7279 80.8994L94.7276 80.8968C94.7258 80.8826 94.7241 80.8683 94.7223 80.8542L94.7216 80.8482C94.7209 80.8432 94.7204 80.8381 94.7197 80.8331L94.7188 80.8261L94.7171 80.8122L94.7162 80.8046L94.7145 80.7905L94.7136 80.7833L94.7118 80.7699L94.7108 80.7615L94.709 80.7486L94.708 80.7404L94.7063 80.7265L94.7054 80.7196C94.7045 80.7141 94.704 80.7088 94.7033 80.7033L94.7028 80.6985L94.7003 80.6806L94.6998 80.677L94.694 80.6341L94.6937 80.631L94.6912 80.6131L94.6904 80.6069L94.6884 80.5921L94.6874 80.5849L94.6857 80.5709L94.6846 80.564L94.6827 80.5496L94.6818 80.5425C94.6811 80.538 94.6804 80.5329 94.6799 80.5283L94.6788 80.521L94.6771 80.5073C94.6766 80.5047 94.6762 80.502 94.6759 80.4994L94.674 80.4851L94.6731 80.479L94.6708 80.4628L94.6701 80.4577L94.6673 80.4376L94.6672 80.4367C94.6651 80.4221 94.6631 80.408 94.661 80.3934L94.6607 80.3912L94.6581 80.3727L94.6572 80.3668L94.6549 80.3514L94.6541 80.3452L94.652 80.3307L94.6507 80.3235L94.6486 80.3093L94.6478 80.3028C94.6469 80.2978 94.6464 80.2933 94.6457 80.2883L94.6446 80.2813C94.6439 80.2763 94.6432 80.2713 94.6425 80.2663L94.6417 80.2605L94.6394 80.2449L94.6385 80.2394L94.6357 80.2207L94.6354 80.2186L94.6256 80.154L94.6253 80.1516C94.6244 80.1453 94.6235 80.1393 94.6225 80.1329L94.6218 80.1286L94.6193 80.1119L94.6184 80.1064C94.6176 80.1015 94.6167 80.0956 94.616 80.0906L94.6151 80.0855C94.6143 80.08 94.6134 80.075 94.6127 80.0695L94.6118 80.0639C94.6109 80.0584 94.6101 80.053 94.6094 80.0477L94.6085 80.0432L94.6059 80.0261L94.6052 80.0219L94.602 80.0027L94.6019 80.001C94.6006 79.9938 94.5998 79.9871 94.5984 79.9799V79.9797C94.5949 79.9579 94.5914 79.9366 94.5879 79.9148L94.5877 79.9131L94.5846 79.8943L94.5837 79.889L94.5809 79.8729L94.58 79.8679L94.5774 79.8521L94.5765 79.8464L94.5739 79.8306L94.5731 79.8253L94.5706 79.8098L94.5696 79.804L94.5668 79.7872L94.5662 79.7832C94.565 79.7769 94.5642 79.7709 94.5631 79.7647L94.5628 79.7623C94.5591 79.7406 94.5554 79.7197 94.5518 79.698L94.5512 79.6958C94.5502 79.6895 94.5491 79.6834 94.5481 79.6771L94.5472 79.6723L94.5444 79.656L94.5436 79.6508L94.5409 79.6352L94.5397 79.6288C94.5388 79.6238 94.538 79.6187 94.5371 79.6137L94.536 79.6082L94.5333 79.5924L94.5324 79.5871C94.5313 79.5818 94.5305 79.5764 94.5296 79.5709L94.5287 79.566C94.5278 79.5606 94.5268 79.5551 94.5259 79.5498L94.525 79.5447L94.5216 79.5253L94.5214 79.5242C94.5175 79.5026 94.5137 79.4815 94.5099 79.4598L94.5097 79.4586C94.5085 79.4519 94.5072 79.4454 94.5062 79.4387L94.5057 79.4363L94.5022 79.4179L94.5015 79.4141C94.5004 79.4083 94.4994 79.4025 94.4983 79.3966L94.4975 79.3927C94.4966 79.3874 94.4955 79.3817 94.4945 79.3762L94.4935 79.3709L94.4903 79.3544L94.4894 79.3501C94.4884 79.3442 94.4873 79.3386 94.4863 79.3327L94.4856 79.3291C94.4844 79.3228 94.4832 79.3164 94.4821 79.3102L94.4818 79.3082C94.4763 79.2795 94.4711 79.2517 94.4657 79.223L94.4652 79.2202L94.4617 79.2022L94.4608 79.1976C94.4598 79.1917 94.4589 79.1873 94.4577 79.1814L94.4568 79.1764L94.4536 79.1601L94.4528 79.1553C94.4517 79.15 94.4507 79.1442 94.4495 79.1387L94.4486 79.1345L94.4453 79.1174L94.4444 79.1132L94.4407 79.0949L94.4404 79.0928C94.439 79.0861 94.4376 79.0792 94.4364 79.0725L94.4362 79.0717C94.4306 79.0435 94.425 79.0148 94.4193 78.9867L94.4187 78.9839L94.4151 78.9655L94.4144 78.9621C94.4131 78.9568 94.4119 78.9504 94.4109 78.9451L94.4098 78.9403C94.4086 78.935 94.4076 78.9293 94.4065 78.924L94.4055 78.9193C94.4044 78.914 94.4032 78.9082 94.4021 78.9029L94.4013 78.8987L94.3976 78.8809L94.3971 78.878L94.3932 78.8591L94.3927 78.857C94.3854 78.8213 94.3781 78.7862 94.3706 78.7507L94.3704 78.75C94.369 78.7433 94.3676 78.7366 94.3662 78.7299L94.3657 78.7273C94.3643 78.7211 94.3632 78.7155 94.3618 78.7091L94.3611 78.7057L94.3575 78.6885L94.3566 78.6842L94.3529 78.6665L94.3524 78.664L94.3484 78.6451L94.3479 78.6428C94.3403 78.6076 94.3325 78.5721 94.3248 78.5369V78.5367L94.3204 78.5168L94.3196 78.513C94.3184 78.5072 94.3171 78.5017 94.3157 78.4958L94.3149 78.4919C94.3136 78.4865 94.3124 78.4807 94.3112 78.4754L94.31 78.4706C94.3088 78.4652 94.3075 78.4598 94.3063 78.4544L94.3053 78.4496C94.304 78.4443 94.3028 78.4391 94.3018 78.4338L94.3005 78.4288C94.2993 78.423 94.2979 78.4175 94.2967 78.4117L94.2958 78.4084L94.2915 78.389L94.2911 78.3878C94.2864 78.3665 94.2815 78.3457 94.2768 78.3244L94.2765 78.323C94.2751 78.3169 94.2735 78.3102 94.2721 78.304L94.2712 78.3C94.27 78.2942 94.2688 78.2889 94.2674 78.283L94.2665 78.2789L94.2627 78.2622L94.2614 78.2576C94.2602 78.2523 94.259 78.2468 94.2578 78.2415L94.2566 78.2368L94.2527 78.2203L94.2518 78.216L94.2475 78.198L94.247 78.196C94.2456 78.1893 94.2442 78.1836 94.2426 78.1771L94.2421 78.1748C94.2354 78.1465 94.2288 78.119 94.222 78.0908C94.2218 78.09 94.222 78.0908 94.2218 78.09C94.2201 78.0829 94.2187 78.0771 94.2171 78.0701L94.2166 78.0678L94.2122 78.0495L94.2115 78.0464C94.2099 78.0402 94.2085 78.0343 94.2071 78.0282L94.2065 78.0256L94.2023 78.0081L94.2012 78.0039L94.197 77.9864L94.1963 77.9837L94.1916 77.9644L94.1913 77.9632C94.181 77.921 94.1707 77.8794 94.1602 77.8372L94.1598 77.8358C94.1583 77.8293 94.1567 77.8227 94.1549 77.8162L94.1546 77.8147L94.1497 77.7956L94.1492 77.7934L94.1443 77.7743L94.144 77.7726L94.1392 77.7537L94.1387 77.7513C94.1263 77.7025 94.1138 77.6534 94.1012 77.6048H94.101L94.0956 77.5842L94.0954 77.5833L94.09 77.5629L94.0848 77.5428L94.0842 77.5413L94.079 77.5213C94.0788 77.5205 94.079 77.5215 94.0788 77.5206C94.0661 77.472 94.053 77.4233 94.0399 77.3748L94.0394 77.3728C94.0376 77.3662 94.0359 77.3602 94.0343 77.3537L94.0338 77.3523C94.0322 77.3462 94.0303 77.3395 94.0287 77.3334L94.028 77.331C94.0265 77.3249 94.0245 77.318 94.023 77.312L94.0226 77.3109C94.0094 77.2622 93.9961 77.2143 93.9825 77.1655L93.9821 77.1641L93.9767 77.1447L93.9764 77.1433L93.971 77.1241L93.9704 77.1225L93.965 77.103L93.9648 77.1021C93.9629 77.0956 93.9612 77.0891 93.9593 77.0825L93.9587 77.0812C93.9449 77.0325 93.9311 76.9845 93.9172 76.936V76.9357C93.9153 76.9292 93.9133 76.9223 93.9114 76.9158L93.9109 76.914L93.9051 76.8946L93.905 76.8938C93.903 76.8872 93.9011 76.8807 93.8992 76.8742L93.8987 76.8728C93.8824 76.8173 93.8662 76.7631 93.8498 76.7078L93.8494 76.7069L93.8437 76.6873L93.8432 76.686L93.8374 76.6672L93.8367 76.6652C93.8348 76.6587 93.833 76.6525 93.8309 76.6459L93.8308 76.6451C93.8161 76.5968 93.8014 76.5489 93.7866 76.5007C93.7845 76.4938 93.7824 76.4873 93.7803 76.4804L93.7801 76.4797L93.7739 76.4598L93.7737 76.4591C93.7716 76.4522 93.7697 76.4459 93.7674 76.439V76.4388L93.7611 76.4187L93.7609 76.4182C93.7438 76.3636 93.7265 76.309 93.7091 76.2545L93.7086 76.2527L93.7025 76.2336L93.7021 76.2326C93.6824 76.1709 93.6625 76.1099 93.6421 76.0484L93.6354 76.0283L93.6351 76.0273L93.6288 76.0086L93.6281 76.0064L93.6216 75.9871L93.6215 75.9868C93.6057 75.9396 93.5897 75.8918 93.5736 75.8446L93.5729 75.8425L93.5666 75.824L93.5661 75.8224L93.5598 75.8039L93.5591 75.8018L93.5528 75.7831L93.5523 75.7819C93.5336 75.7276 93.5151 75.674 93.4961 75.6199L93.4959 75.6191C93.4937 75.6127 93.4914 75.6064 93.4893 75.6L93.4886 75.5983L93.4823 75.5799L93.4816 75.5782C93.4795 75.5724 93.4773 75.5658 93.4752 75.56L93.4745 75.5581C93.4554 75.5044 93.4362 75.4506 93.417 75.397L93.4169 75.3963C93.4144 75.3896 93.4123 75.3836 93.4099 75.3769L93.4095 75.3759C93.4072 75.3695 93.4052 75.3637 93.4029 75.3575L93.402 75.3553C93.324 75.1404 93.243 74.9261 93.1594 74.714L93.1588 74.7128C93.1326 74.6463 93.1063 74.5805 93.0796 74.5142L93.0794 74.5141C93.0766 74.5074 93.074 74.501 93.0714 74.4943L93.0712 74.4941C93.0471 74.4346 93.0228 74.3753 92.9982 74.3159C92.9979 74.3152 92.9984 74.3162 92.998 74.3155C92.9652 74.2364 92.9324 74.158 92.8987 74.0792L92.8984 74.0785C92.8425 73.9471 92.7858 73.8173 92.7278 73.6871L92.7273 73.6859L92.7189 73.6674L92.7187 73.6668C92.7158 73.6603 92.7131 73.6543 92.7102 73.6478L92.71 73.6474C92.6868 73.5954 92.6632 73.5437 92.6396 73.4918L92.6395 73.4915C92.6365 73.485 92.6337 73.4793 92.6309 73.4728L92.6304 73.4717C92.6276 73.4657 92.625 73.4599 92.6222 73.4539L92.6213 73.4522C92.5977 73.4008 92.574 73.3495 92.5501 73.2981L92.5497 73.2973C92.5466 73.2907 92.544 73.2849 92.5408 73.2785L92.5321 73.26L92.5316 73.2586L92.523 73.2404L92.5225 73.2397C92.5195 73.2332 92.5167 73.2274 92.5138 73.2208L92.5136 73.2205C92.4925 73.1753 92.4712 73.1308 92.4497 73.0858L92.4494 73.0851L92.4408 73.0673L92.4399 73.0654L92.4316 73.048L92.4309 73.0465C92.4281 73.0405 92.4251 73.0345 92.4223 73.0285L92.4218 73.0276C92.3972 72.9763 92.3725 72.9258 92.3476 72.8746L92.3474 72.8741C92.3411 72.8614 92.3352 72.8493 92.3291 72.8365L92.3286 72.8356C92.3034 72.7846 92.2785 72.7339 92.2531 72.6831L92.253 72.6827L92.2437 72.6642C92.2434 72.6635 92.2439 72.6644 92.2435 72.6637L92.2343 72.6453L92.2338 72.6444L92.2245 72.6259L92.2243 72.6257C92.1988 72.5749 92.1734 72.5246 92.1473 72.4739L92.147 72.4732C92.1439 72.4669 92.1411 72.4614 92.1377 72.455L92.1372 72.4542C92.1016 72.3846 92.0662 72.3161 92.0299 72.2469L92.0295 72.246C92.0264 72.2402 92.0232 72.2343 92.0203 72.2283L92.0196 72.2269C91.9934 72.177 91.9667 72.1268 91.9403 72.0772L91.94 72.0765C91.9365 72.0703 91.9335 72.0645 91.9302 72.0581L91.93 72.0579C91.9267 72.0518 91.9234 72.0456 91.9201 72.0392C91.8899 71.9829 91.8595 71.9267 91.8289 71.8706V71.8704C91.8258 71.8645 91.8223 71.8582 91.819 71.8524L91.8181 71.851L91.8085 71.8331L91.8083 71.8329C91.7776 71.777 91.7469 71.7215 91.716 71.6657L91.7155 71.6648C91.712 71.6586 91.709 71.6533 91.7055 71.6471L91.705 71.6463L91.6954 71.6287L91.6947 71.6277C91.6669 71.5782 91.6395 71.5293 91.6114 71.48L91.6112 71.4798L91.6009 71.4618C91.6006 71.4611 91.6011 71.462 91.6006 71.4613L91.5908 71.4439L91.5898 71.4422L91.5798 71.4249L91.5795 71.4244L91.5695 71.4068L91.569 71.4058C91.5479 71.3689 91.5269 71.3327 91.5056 71.2959L91.5051 71.295C91.4981 71.2832 91.4913 71.2715 91.4845 71.2597L91.4834 71.2579C91.4801 71.2523 91.477 71.2466 91.4735 71.2409L91.473 71.2401C91.4445 71.1911 91.4161 71.1427 91.3871 71.0938C91.3866 71.0931 91.3874 71.0944 91.3869 71.0938L91.3763 71.0759L91.3756 71.0747C91.3724 71.0694 91.3689 71.0634 91.3658 71.058L91.3646 71.0561L91.355 71.0402L91.3536 71.0378C91.3248 70.9895 91.2961 70.9416 91.267 70.8935L91.2661 70.8921C91.2589 70.8804 91.252 70.8688 91.2448 70.8569L91.2444 70.8562C91.2408 70.8502 91.2375 70.8449 91.2338 70.8389L91.2333 70.8382C91.2074 70.7958 91.1819 70.7539 91.1559 70.7118L91.1558 70.7114L91.1448 70.6938L91.1446 70.6934C91.1411 70.6877 91.1374 70.6817 91.1339 70.6761L91.1331 70.6747C91.1299 70.6694 91.1261 70.6634 91.1228 70.658L91.1221 70.6568L91.1116 70.64L91.1109 70.639C91.081 70.5909 91.0515 70.5435 91.0213 70.4956L91.0208 70.4947L91.0102 70.4777L91.0096 70.4767C91.006 70.471 91.0027 70.4655 90.999 70.4598L90.9983 70.4586C90.9681 70.4107 90.9382 70.364 90.9075 70.3163L90.9066 70.3151C90.9032 70.3096 90.8997 70.3041 90.896 70.2984L90.8955 70.2975C90.8916 70.2915 90.8885 70.2866 90.8845 70.2805L90.884 70.2799L90.8728 70.2627L90.8724 70.2622C90.8688 70.2562 90.8651 70.2507 90.8613 70.2446L90.8611 70.2445C90.838 70.2088 90.8148 70.1732 90.7918 70.1378L90.7916 70.1376L90.7804 70.1205L90.7796 70.1191L90.7691 70.1031L90.7677 70.1011L90.757 70.0849L90.7563 70.0839L90.7455 70.0674L90.7446 70.0662C90.7174 70.0248 90.6903 69.9841 90.6629 69.9429C90.6624 69.9422 90.6631 69.9432 90.6628 69.9425C90.6591 69.937 90.6554 69.9314 90.6516 69.9259L90.6504 69.9242C90.6467 69.9187 90.6432 69.9133 90.6394 69.9079L90.6388 69.9072C90.6352 69.9017 90.6315 69.8962 90.6278 69.8907L90.627 69.8893C90.5957 69.8426 90.5643 69.796 90.5327 69.7495L90.5318 69.7483L90.5207 69.7318L90.5201 69.731L90.509 69.7143L90.5084 69.7134C90.4725 69.6609 90.437 69.609 90.4007 69.5568L90.4002 69.5559L90.389 69.5398L90.3878 69.5381C90.3478 69.4807 90.3073 69.4228 90.2672 69.3658L90.2663 69.3644C90.2626 69.3595 90.2586 69.3536 90.2551 69.3486L90.2541 69.3471C90.2506 69.3421 90.2471 69.3371 90.2434 69.332L90.2417 69.3296C90.238 69.3246 90.2342 69.3189 90.2305 69.314L90.2298 69.3129C90.2012 69.2726 90.1729 69.2331 90.1439 69.1929L90.1431 69.1917L90.1315 69.1757L90.1307 69.1745L90.119 69.1582L90.1184 69.1575C90.0854 69.1116 90.0523 69.0661 90.0189 69.0206L90.0188 69.0204L90.0064 69.0036L90.006 69.0031C90.0022 68.9978 89.9982 68.9923 89.9943 68.987L89.9931 68.9854L89.9816 68.9698L89.9807 68.9686L89.9687 68.9523L89.9685 68.9521C89.9392 68.9122 89.9098 68.8726 89.8803 68.8329H89.8801L89.8679 68.8164L89.8671 68.8152C89.8634 68.8102 89.8592 68.8047 89.8555 68.7997L89.8541 68.7979L89.843 68.7831L89.8414 68.7809C89.8077 68.7359 89.774 68.6912 89.7401 68.6466L89.7396 68.6459L89.7272 68.6295L89.7269 68.629C89.7229 68.6237 89.7187 68.6184 89.7147 68.6131L89.7138 68.612L89.7016 68.5962L89.701 68.5954L89.6885 68.5789C89.667 68.5509 89.6455 68.5229 89.6239 68.4949H89.6237C89.6197 68.4896 89.6153 68.4841 89.6113 68.4788L89.6099 68.4769C89.6062 68.4721 89.6022 68.4671 89.5984 68.4621L89.5972 68.4604L89.5858 68.4456L89.5841 68.4434C89.5804 68.4386 89.5767 68.4338 89.5729 68.429L89.5715 68.4272L89.5593 68.4116L89.5588 68.4111C89.5284 68.3721 89.498 68.3333 89.4675 68.2945C89.4631 68.289 89.4591 68.2838 89.4547 68.2783L89.4538 68.2773L89.4413 68.2615L89.4407 68.261L89.4285 68.2455L89.4275 68.2442C89.3927 68.2002 89.3576 68.156 89.3224 68.1123L89.3219 68.1114L89.3093 68.0958L89.3088 68.0951L89.2962 68.0794L89.2955 68.0788L89.2826 68.0626H89.2824C89.247 68.0187 89.2114 67.9747 89.1757 67.9311H89.1756C89.1712 67.9256 89.167 67.9204 89.1623 67.9149L89.1619 67.9146C89.1173 67.86 89.0724 67.8055 89.0274 67.7512C89.0183 67.7404 89.0092 67.7296 89.0003 67.7188H89.0001C88.0586 66.5906 87.0215 65.5431 85.9 64.5877C84.3442 63.264 81.9924 63.4318 80.6469 64.9624C79.3029 66.4915 79.4715 68.8025 81.0238 70.1268C88.802 76.7461 89.6532 88.3154 82.9249 95.9675C79.3879 99.9901 74.2484 102.302 68.842 102.302C65.2842 102.307 61.7999 101.306 58.8047 99.4167C57.0736 98.3239 54.7698 98.8185 53.6589 100.522C52.5497 102.222 53.0491 104.485 54.7755 105.58C55.4468 106.004 56.1386 106.398 56.8507 106.762L56.8516 106.762C56.8683 106.771 56.8856 106.78 56.9024 106.788L56.9046 106.789C56.9221 106.798 56.9381 106.806 56.9556 106.815L56.9565 106.816L56.9732 106.824L56.9753 106.825C56.9921 106.834 57.009 106.842 57.026 106.851L57.0275 106.852C57.0443 106.86 57.0609 106.868 57.0778 106.877L57.0808 106.878C57.0968 106.886 57.1148 106.895 57.131 106.903L57.1328 106.904C57.1497 106.912 57.1667 106.921 57.1836 106.929L57.1857 106.93C57.1915 106.933 57.196 106.935 57.2019 106.938L57.2049 106.939C57.221 106.947 57.2372 106.955 57.2532 106.963L57.259 106.966C57.2752 106.974 57.2901 106.981 57.3061 106.989L57.311 106.991L57.3266 106.999L57.3271 106.999L57.3587 107.015L57.3636 107.017L57.3786 107.024L57.3835 107.027C57.3931 107.031 57.4025 107.036 57.4123 107.04L57.416 107.042L57.4308 107.049L57.4369 107.052C57.4465 107.057 57.4561 107.061 57.4657 107.066L57.4688 107.067L57.4825 107.074L57.4901 107.078L57.5036 107.084L57.5093 107.087C57.5183 107.091 57.5252 107.095 57.5341 107.099L57.5427 107.103L57.5563 107.109L57.5624 107.112C57.5706 107.116 57.5788 107.12 57.587 107.124L57.5951 107.128L57.6082 107.134L57.6169 107.138L57.6405 107.149L57.6474 107.152L57.6607 107.159L57.6698 107.163L57.6818 107.169C57.6881 107.171 57.694 107.174 57.7002 107.177L57.7129 107.183L57.7222 107.187L57.7347 107.193L57.7443 107.198L57.7656 107.208L57.7745 107.212L57.7869 107.217L57.7981 107.223C57.804 107.225 57.8094 107.228 57.8156 107.231L57.8281 107.236L57.8396 107.242L57.8498 107.246L57.8664 107.254L57.8805 107.26L57.8918 107.265L57.9028 107.27L57.9147 107.276L57.9334 107.284L57.9453 107.289L57.9552 107.294L57.9674 107.299L57.9791 107.305L57.9969 107.313L58.0085 107.318L58.0202 107.323L58.0322 107.329L58.0456 107.335C58.0507 107.337 58.0561 107.339 58.0614 107.342L58.0724 107.347L58.0853 107.353L58.0945 107.357C58.1015 107.36 58.108 107.363 58.1151 107.366L58.124 107.37L58.1375 107.376L58.1474 107.38C58.1535 107.383 58.1602 107.386 58.1664 107.389L58.1764 107.393L58.1905 107.399L58.2001 107.403L58.2162 107.41L58.2269 107.415L58.2438 107.422L58.2525 107.426L58.2681 107.433L58.2759 107.436L58.2969 107.445L58.3058 107.449L58.3202 107.456L58.3288 107.459L58.3499 107.468L58.358 107.472L58.3731 107.478L58.3822 107.482C58.3892 107.485 58.3965 107.489 58.4037 107.492L58.4081 107.494L58.4267 107.502L58.4344 107.505L58.4531 107.513L58.4575 107.515L58.4796 107.524L58.4873 107.528L58.5041 107.535L58.5107 107.537C58.518 107.541 58.5254 107.544 58.5327 107.547L58.5393 107.55L58.5568 107.557L58.5636 107.56L58.5859 107.569L58.5917 107.572C58.5978 107.574 58.6036 107.577 58.6095 107.579L58.6165 107.582L58.6392 107.592L58.6409 107.593L58.6633 107.602L58.669 107.604L58.6902 107.613L58.6928 107.614C58.7005 107.617 58.7087 107.621 58.7164 107.624L58.7218 107.626L58.7413 107.634L58.7464 107.636L58.7696 107.646L58.7745 107.648L58.793 107.655L58.8002 107.658C58.8077 107.661 58.8157 107.665 58.8232 107.668L58.8256 107.669C58.8326 107.672 58.8398 107.675 58.8469 107.678L58.853 107.68L58.8759 107.689C58.8768 107.69 58.8757 107.689 58.8766 107.69L58.9 107.699L58.9065 107.702L58.9264 107.71L58.9304 107.711L58.954 107.721L58.959 107.723L58.9796 107.731L58.9833 107.733L59.0075 107.743L59.0109 107.744L59.0322 107.753L59.0371 107.754C59.0531 107.761 59.0693 107.767 59.0852 107.774L59.0908 107.776L59.1123 107.784L59.1151 107.785C59.1231 107.788 59.1313 107.792 59.1394 107.795L59.1439 107.797L59.1648 107.805L59.1687 107.806L59.1929 107.816L59.1964 107.817L59.2176 107.826L59.2224 107.827C59.2389 107.834 59.2553 107.84 59.2717 107.847L59.2755 107.848C59.2921 107.855 59.3085 107.861 59.3251 107.867L59.3295 107.869L59.3532 107.878L59.3539 107.878C59.3625 107.882 59.3705 107.885 59.3792 107.888L59.3827 107.89C59.3899 107.892 59.3979 107.895 59.4051 107.898L59.4082 107.899L59.4332 107.909L59.4354 107.91L59.4581 107.918L59.4621 107.92C59.4789 107.926 59.4951 107.932 59.5119 107.939L59.5159 107.94L59.5402 107.95L59.5405 107.95L59.566 107.959L59.5692 107.96L59.5924 107.969L59.5948 107.97L59.62 107.98L59.6229 107.981L59.6449 107.989L59.6493 107.99L59.6742 108L59.6749 108L59.6992 108.009L59.7032 108.01C59.72 108.016 59.7364 108.022 59.7532 108.029L59.7572 108.03L59.7814 108.039L59.782 108.039C59.7905 108.042 59.7991 108.045 59.8078 108.049L59.8104 108.05C59.8184 108.053 59.8261 108.055 59.8343 108.058L59.8361 108.059L59.8621 108.069L59.863 108.069L59.8881 108.078L59.8902 108.079L59.9419 108.097L59.9445 108.098C59.9619 108.104 59.9791 108.11 59.9965 108.117L59.9983 108.117L60.0241 108.126C60.0248 108.127 60.0234 108.126 60.0243 108.126L60.0508 108.136L60.0522 108.136L60.0763 108.145L60.0796 108.146C60.0967 108.152 60.1135 108.158 60.1306 108.164L60.1339 108.165C60.1508 108.171 60.1683 108.177 60.1852 108.183L60.188 108.184C60.2051 108.19 60.2224 108.196 60.2397 108.202L60.2421 108.203L60.2668 108.211L60.2683 108.212L60.2945 108.221L60.2959 108.221L60.3209 108.229L60.323 108.23C60.3404 108.236 60.3577 108.242 60.3753 108.248L60.3776 108.249C60.3952 108.255 60.4123 108.26 60.43 108.266L60.4319 108.267C60.4586 108.276 60.4848 108.285 60.5115 108.294L60.5131 108.294C60.5307 108.3 60.5483 108.306 60.566 108.312L60.5677 108.312C60.5854 108.318 60.6032 108.324 60.6208 108.329L60.6224 108.33C60.6403 108.336 60.658 108.342 60.676 108.347L60.6768 108.348C60.7039 108.356 60.7311 108.365 60.7582 108.374H60.7584C60.7763 108.38 60.794 108.385 60.8119 108.391L60.8139 108.392C60.8315 108.397 60.8495 108.403 60.8671 108.409L60.8683 108.409C60.8865 108.415 60.9043 108.42 60.9225 108.426L60.9228 108.426L60.9495 108.435L60.9502 108.435C60.9685 108.44 60.9865 108.446 61.0049 108.452H61.0052C61.0232 108.457 61.0415 108.463 61.0595 108.469L61.0605 108.469C61.0787 108.474 61.0969 108.48 61.115 108.486H61.1152C61.1609 108.499 61.2067 108.513 61.2524 108.527L61.2533 108.527C61.2716 108.533 61.2894 108.538 61.3079 108.543C61.3088 108.543 61.3077 108.543 61.3086 108.543C61.3269 108.549 61.3449 108.554 61.3634 108.56C61.3643 108.56 61.3629 108.559 61.3638 108.56L61.391 108.568H61.3912C61.4093 108.573 61.4277 108.578 61.4458 108.584L61.4469 108.584C61.465 108.589 61.4827 108.594 61.5008 108.6L61.5027 108.6C61.5209 108.606 61.5387 108.611 61.5569 108.616L61.5579 108.616C61.5761 108.621 61.5946 108.627 61.6127 108.632L61.6131 108.632C61.6593 108.645 61.7051 108.658 61.7515 108.671L61.7524 108.671C61.7709 108.676 61.789 108.681 61.8075 108.686H61.8077L61.8353 108.694H61.8357C61.8542 108.699 61.8727 108.704 61.8912 108.709H61.8913C61.9097 108.714 61.9282 108.719 61.9465 108.724L61.9477 108.724C61.9661 108.729 61.9844 108.734 62.0029 108.739L62.0032 108.739C62.0219 108.744 62.0403 108.749 62.0588 108.754L62.0593 108.754L62.0869 108.761H62.087C62.1054 108.766 62.1239 108.771 62.1422 108.776L62.1434 108.776C62.1618 108.781 62.1801 108.786 62.1986 108.79L62.1995 108.79C62.2178 108.795 62.2366 108.8 62.255 108.805H62.2552C62.3016 108.816 62.3486 108.828 62.395 108.84L62.3959 108.84C62.4145 108.845 62.4327 108.849 62.4514 108.854L62.4521 108.854C62.4708 108.859 62.4891 108.863 62.5079 108.868H62.5081C62.5551 108.88 62.6017 108.891 62.6488 108.902H62.6492C62.6678 108.907 62.6862 108.911 62.705 108.916L62.7059 108.916L62.7333 108.922H62.7338C62.7525 108.927 62.771 108.931 62.7899 108.935L62.7904 108.936C62.8089 108.94 62.8271 108.944 62.8456 108.949L62.8477 108.949C62.866 108.953 62.884 108.957 62.9023 108.962L62.9044 108.962C62.9229 108.966 62.9412 108.971 62.9599 108.975H62.9603C62.9884 108.981 63.0165 108.988 63.0444 108.994L63.0456 108.994L63.1011 109.006L63.1025 109.007C63.1209 109.011 63.1399 109.015 63.1582 109.019L63.1594 109.019C63.1781 109.023 63.1968 109.027 63.2155 109.032H63.2158L63.2436 109.038L63.2445 109.038C63.2631 109.042 63.2815 109.046 63.3002 109.05L63.3019 109.05C63.3202 109.054 63.3389 109.058 63.3574 109.062L63.3592 109.062C63.3775 109.066 63.3963 109.07 63.4149 109.074L63.4161 109.074C63.4444 109.08 63.4726 109.085 63.5009 109.091H63.5011C63.5201 109.095 63.5386 109.099 63.5578 109.103L63.5587 109.103C63.5777 109.107 63.5962 109.111 63.6154 109.114H63.6156C63.6442 109.12 63.6727 109.126 63.7013 109.131H63.7015L63.7581 109.142L63.7595 109.143C63.778 109.146 63.7968 109.15 63.8153 109.153L63.8169 109.154C63.8354 109.157 63.8544 109.161 63.8731 109.164L63.8743 109.165C63.9024 109.17 63.9309 109.175 63.9588 109.181L63.9602 109.181C63.9787 109.184 63.9972 109.188 64.0159 109.191L64.0184 109.192C64.037 109.195 64.0552 109.198 64.0739 109.202L64.0763 109.202L64.1034 109.207H64.1039L64.132 109.212L64.1334 109.213L64.1601 109.218L64.1619 109.218C64.1802 109.221 64.1992 109.225 64.2174 109.228L64.2198 109.228C64.2381 109.231 64.2568 109.235 64.2752 109.238L64.2779 109.238C64.2963 109.242 64.3146 109.245 64.3329 109.248L64.3361 109.248L64.3626 109.253L64.3633 109.253L64.3918 109.258L64.3925 109.258L64.4197 109.262L64.4218 109.263C64.4401 109.266 64.4588 109.269 64.4773 109.272L64.4805 109.273C64.4988 109.276 64.5171 109.279 64.5356 109.282L64.5384 109.282L64.5655 109.287L64.566 109.287L64.5941 109.291L64.5962 109.292L64.6227 109.296L64.6245 109.296L64.6529 109.301H64.6531L64.68 109.305L64.6833 109.306C64.7015 109.309 64.7203 109.311 64.7385 109.314L64.7418 109.315C64.7601 109.318 64.7785 109.32 64.797 109.323L64.7999 109.324L64.8268 109.328H64.8273L64.8558 109.332L64.857 109.332L64.8839 109.336L64.8863 109.337L64.9144 109.341H64.915L64.9415 109.345L64.9455 109.345C64.9637 109.348 64.9817 109.351 64.9998 109.353L65.0045 109.354L65.0304 109.358L65.0316 109.358L65.059 109.362L65.0628 109.362L65.0873 109.366L65.0908 109.366L65.1183 109.37L65.1199 109.37L65.1458 109.374L65.1496 109.374C65.1679 109.377 65.1863 109.38 65.2044 109.382L65.2083 109.383C65.2266 109.385 65.2447 109.388 65.2631 109.39L65.2673 109.39L65.2927 109.394L65.2945 109.394L65.3224 109.398L65.3249 109.398L65.3507 109.402L65.3533 109.402L65.3814 109.406H65.382L65.4087 109.409L65.4127 109.41C65.431 109.412 65.4492 109.414 65.4675 109.417L65.4717 109.417L65.4984 109.421H65.4989L65.5269 109.424L65.5303 109.425L65.5553 109.428L65.5588 109.428L65.5864 109.431L65.5888 109.432L65.6136 109.435L65.6187 109.435C65.6368 109.438 65.655 109.44 65.673 109.442L65.6777 109.442C65.6958 109.445 65.7136 109.447 65.7318 109.449L65.7377 109.45L65.7618 109.452L65.7643 109.453L65.7917 109.456L65.7957 109.456L65.8198 109.459L65.8238 109.459L65.8514 109.463L65.8533 109.463L65.8786 109.465L65.8835 109.466C65.9017 109.468 65.9195 109.47 65.9375 109.472L65.9436 109.473L65.9673 109.475L65.9704 109.476L65.997 109.479L66.0024 109.479L66.0263 109.482L66.03 109.482L66.0572 109.485L66.0607 109.485L66.0848 109.488L66.0895 109.488C66.1077 109.49 66.1262 109.492 66.1443 109.494L66.149 109.494C66.1674 109.496 66.1853 109.498 66.2037 109.5L66.2084 109.5L66.2337 109.503L66.2358 109.503L66.2634 109.506L66.2674 109.506L66.2917 109.509L66.2957 109.509L66.3231 109.512L66.3261 109.512L66.3508 109.514L66.3556 109.515C66.3739 109.517 66.3917 109.518 66.4098 109.52L66.4156 109.52L66.4409 109.523L66.4427 109.523L66.4699 109.525L66.4751 109.526L66.4998 109.528L66.5025 109.528L66.5305 109.53L66.5336 109.531L66.5581 109.533L66.5631 109.533L66.5907 109.536H66.5911L66.6174 109.538L66.623 109.538C66.641 109.54 66.6593 109.541 66.6773 109.543L66.6834 109.543L66.7075 109.545L66.7103 109.546L66.7375 109.548L66.7426 109.548L66.7658 109.55L66.7707 109.55L66.7976 109.552L66.8016 109.553L66.8253 109.554L66.8304 109.555L66.8578 109.557L66.8592 109.557L66.8845 109.559L66.8913 109.559L66.9152 109.561L66.9184 109.561L66.9449 109.563L66.9512 109.564L66.9737 109.565L66.9788 109.565L67.0055 109.567L67.0106 109.568L67.0329 109.569L67.0395 109.57L67.0661 109.571L67.0692 109.572L67.0933 109.573L67.0996 109.574C67.1176 109.575 67.1352 109.576 67.1534 109.577L67.1598 109.577L67.1839 109.579L67.1869 109.579L67.2139 109.581L67.2197 109.581L67.2426 109.582L67.2476 109.583L67.2745 109.584L67.2796 109.585L67.3021 109.586L67.3084 109.586L67.3354 109.588H67.337L67.3625 109.589L67.3686 109.59L67.3938 109.591L67.396 109.591L67.4231 109.593L67.4288 109.593L67.4524 109.594L67.4564 109.594L67.4837 109.596L67.4885 109.596L67.5118 109.597L67.5173 109.597L67.5444 109.599L67.5479 109.599L67.5716 109.6L67.5783 109.6L67.6052 109.602H67.606L67.6319 109.603L67.639 109.603L67.6629 109.604L67.6657 109.604L67.6924 109.606L67.6994 109.606L67.7213 109.607L67.727 109.607L67.7535 109.608L67.7595 109.608L67.7811 109.609L67.7879 109.609L67.8145 109.61L67.8181 109.611L67.8417 109.611L67.8487 109.612L67.8724 109.613L67.8759 109.613L67.9019 109.614L67.9096 109.614L67.9306 109.615L67.937 109.615L67.9627 109.616L67.9702 109.616L67.9908 109.617L67.9978 109.617L68.024 109.618L68.0294 109.618L68.0514 109.619L68.0587 109.619L68.0852 109.619H68.0873L68.1119 109.62L68.1198 109.62L68.1441 109.621H68.1462L68.1736 109.622L68.1797 109.622L68.2026 109.622L68.2076 109.622L68.2342 109.623L68.2406 109.623L68.2623 109.624L68.2689 109.624L68.2954 109.625H68.2996L68.3228 109.625L68.33 109.625L68.355 109.626H68.3574L68.3838 109.626L68.3913 109.626L68.4134 109.627H68.4185L68.4452 109.627L68.4515 109.627L68.4735 109.628H68.48L68.5068 109.628H68.5109L68.5342 109.628H68.5411L68.5679 109.629H68.5707L68.5948 109.629H68.6029L68.6259 109.629H68.6297L68.6563 109.629H68.6633L68.6859 109.629H68.691L68.7175 109.63H68.7245H68.7455H68.7525H68.779H68.7842H68.8066H68.8139H68.8408L68.8469 109.628Z" fill="#FFB800"/>
<path d="M68.8469 102.3C79.1315 102.3 87.4688 94.0981 87.4688 83.9801C87.4688 73.8622 79.1315 65.66 68.8469 65.66C58.5624 65.66 50.2251 73.8622 50.2251 83.9801C50.2251 94.0981 58.5624 102.3 68.8469 102.3Z" fill="#FFE152"/>
<path d="M50.2257 87.752C48.1671 87.752 46.5015 86.2188 46.5015 84.1955V83.9808C46.5149 71.8452 56.5116 62.0106 68.847 61.9973C73.8819 61.9793 78.7724 63.6509 82.7112 66.7365C84.324 67.9933 84.596 70.2985 83.3185 71.8852C82.041 73.472 79.6978 73.7396 78.0849 72.4827C75.4611 70.4259 72.202 69.312 68.847 69.3252C60.6233 69.3338 53.9588 75.8904 53.95 83.9808C53.95 86.0041 52.2842 87.752 50.2257 87.752Z" fill="#FFEE9D"/>
<path d="M74.4333 80.3168H63.2605C62.2321 80.3168 61.3983 79.4965 61.3983 78.4848C61.3983 77.473 62.2321 76.6528 63.2605 76.6528H76.2955C78.3523 76.6516 80.0188 75.0102 80.0174 72.9867C80.0162 70.9649 78.3506 69.3263 76.2955 69.3251H63.2605C58.1184 69.3251 53.95 73.426 53.95 78.4848C53.95 83.5435 58.1184 87.6445 63.2605 87.6445H74.4333C75.4617 87.6445 76.2955 88.4647 76.2955 89.4765C76.2955 90.4883 75.4617 91.3085 74.4333 91.3085H61.3983C59.3415 91.3085 57.6741 92.9489 57.6741 94.9724C57.6741 96.9959 59.3415 98.6362 61.3983 98.6362H74.4333C79.5754 98.6362 83.7439 94.5353 83.7439 89.4765C83.7439 84.4177 79.5754 80.3168 74.4333 80.3168Z" fill="#FFF7D2"/>
<path d="M7.24182 120.622H135.172C136.505 120.622 137.586 121.703 137.586 123.036V135.105H4.82788V123.036C4.82788 121.703 5.90881 120.622 7.24182 120.622V120.622Z" fill="#005EEE"/>
<path d="M137.586 38.5536H2.41394C1.08093 38.5536 1.24797e-06 37.4727 1.24797e-06 36.1397V23.4355C-0.00106687 22.3802 0.683595 21.4467 1.68976 21.1305L67.8542 0.599236C69.2523 0.164513 70.7477 0.164513 72.1458 0.599236L138.31 21.1305C139.316 21.4467 140.001 22.3802 140 23.4355V36.1397C140 37.4727 138.919 38.5536 137.586 38.5536Z" fill="#079CFF"/>
<path d="M12.0686 27.2222L69.2758 10.2635C69.7415 10.1193 70.2392 10.1193 70.7049 10.2635L129.02 27.2222H12.0686Z" fill="#0784FF"/>
<path d="M2.41394 130.277H137.586C138.919 130.277 140 131.358 140 132.691V137.519C140 138.852 138.919 139.933 137.586 139.933H2.41394C1.08093 139.933 0 138.852 0 137.519V132.691C0 131.358 1.08093 130.277 2.41394 130.277Z" fill="#079CFF"/>
<path opacity="0.24" d="M101.699 27.2222H128.25C129.998 27.2222 131.416 28.6396 131.416 30.3879C131.416 32.1362 129.998 33.5536 128.25 33.5536H101.699C99.9511 33.5536 98.5337 32.1362 98.5337 30.3879C98.5337 28.6396 99.9508 27.2222 101.699 27.2222Z" fill="white"/>
</svg>
